<?xml version="1.0" encoding="UTF-8" standalone="no"?>
<!DOCTYPE svg PUBLIC "-//W3C//DTD SVG 20010904//EN" "http://www.w3.org/TR/2001/REC-SVG-20010904/DTD/svg10.dtd">
<svg version="1.0" xmlns="http://www.w3.org/2000/svg" width="300.000000pt" height="300.000000pt" viewBox="0 0 300.000000 300.000000" preserveAspectRatio="xMidYMid meet">
<metadata>
Created by potrace 1.10, written by Peter Selinger 2001-2011
</metadata>
<g transform="translate(0.000000,300.000000) scale(0.100000,-0.100000)" fill="#000000" stroke="none">
<path d="M213 2370 c-2 -3 -8 -5 -11 -5 -17 0 -72 -48 -78 -68 -10 -27 -12 -407 -3 -407 4 0 3 -16 -1 -35 -4 -19 -5 -33 -1 -31 3 2 6 -135 6 -305 0 -170 2 -309 5 -309 3 0 4 -33 2 -72 -3 -87 -3 -77 2 -163 4 -66 7 -71 46 -108 l41 -40 172 -1 c95 0 196 2 225 5 29 3 55 3 57 1 6 -7 85 -8 85 -2 0 3 188 6 417 8 452 4 457 4 482 59 16 34 14 51 -8 62 -23 13 -342 18 -361 6 -7 -5 -11 -4 -7 1 5 9 -414 9 -439 0 -7 -3 -16 -1 -19 4 -4 6 -14 7 -23 3 -22 -10 -508 -10 -518 0 -11 10 -13 153 -3 169 7 10 9 10 9 1 0 -7 11 -13 25 -13 14 0 25 -4 25 -9 0 -13 59 -3 102 18 21 10 38 15 38 10 0 -5 7 -9 15 -9 8 0 15 -5 15 -11 0 -5 4 -7 10 -4 5 3 17 2 26 -3 15 -9 35 -4 104 25 19 8 29 7 40 -2 33 -30 108 -37 134 -13 19 17 49 16 71 -2 15 -12 143 -11 151 1 3 5 13 5 22 0 9 -5 62 -8 117 -8 129 2 138 10 131 112 -5 64 -4 68 8 45 8 -14 18 -47 22 -74 4 -33 14 -56 28 -67 20 -17 22 -17 53 1 27 16 33 17 44 4 19 -23 66 -17 85 11 20 31 29 31 57 2 39 -42 88 -59 162 -55 37 1 69 7 71 13 6 15 76 19 174 11 30 -3 51 1 62 11 15 13 23 13 72 -6 37 -14 56 -17 56 -9 0 6 3 9 6 5 4 -3 19 0 34 8 23 12 29 12 43 -2 14 -15 18 -15 41 1 14 9 26 25 26 35 0 20 -45 55 -59 47 -4 -3 -16 1 -27 8 -16 12 -16 16 -5 30 19 23 1 60 -39 85 -26 15 -39 17 -73 9 -23 -5 -48 -14 -55 -21 -11 -9 -17 -7 -27 6 -6 9 -15 14 -18 10 -4 -3 -7 -2 -7 4 0 6 -21 6 -61 0 -53 -9 -63 -8 -71 6 -5 10 -16 17 -23 17 -8 0 -15 5 -15 10 0 19 -22 10 -57 -25 -19 -19 -39 -33 -44 -30 -4 3 -3 -8 2 -25 6 -16 15 -30 19 -30 12 0 32 -62 23 -71 -5 -3 -27 -9 -49 -13 -33 -5 -43 -2 -48 10 -3 8 -10 13 -15 10 -5 -3 -28 37 -52 88 -24 52 -47 92 -51 90 -4 -3 -8 0 -8 5 0 15 -49 10 -62 -6 -14 -17 -38 -16 -52 2 -8 12 -32 16 -96 16 -168 0 -154 3 -178 -40 -21 -38 -29 -91 -15 -105 15 -14 10 -36 -9 -42 -35 -11 -47 12 -52 97 -5 65 -22 87 -71 88 -22 1 -69 3 -105 4 -45 2 -70 -2 -82 -12 -14 -11 -21 -11 -32 -2 -23 19 -48 5 -79 -41 -17 -27 -26 -34 -22 -20 5 17 0 31 -16 48 -23 24 -59 33 -59 14 0 -13 -47 -13 -52 1 -2 5 -10 11 -18 12 -8 2 -20 6 -26 10 -6 3 -14 3 -18 0 -4 -4 -16 -8 -27 -10 -11 -2 -27 -10 -35 -18 -16 -16 -32 -15 -79 4 -37 16 -86 16 -113 2 -11 -6 -23 -11 -26 -11 -11 0 -3 81 8 88 6 4 85 8 176 9 91 2 193 4 228 5 34 2 62 -1 62 -5 0 -5 5 -5 12 -1 6 4 75 8 152 10 204 3 202 2 227 23 l23 19 -26 38 c-14 22 -47 62 -74 91 l-49 52 -297 -4 c-164 -2 -301 -5 -305 -7 -7 -4 -56 -3 -131 1 -6 1 -11 4 -11 9 1 4 1 9 0 12 -7 19 -7 391 -1 401 6 9 49 13 151 16 130 2 144 4 165 24 l24 22 -27 36 c-15 20 -31 39 -36 42 -5 4 -6 12 -3 18 4 6 4 10 -1 9 -4 -2 -27 16 -51 40 -38 37 -48 42 -90 43 -26 0 -78 1 -115 2 -38 1 -71 0 -74 -3z m297 -112 l72 -83 -176 -3 -176 -2 0 -255 0 -254 393 5 392 6 62 -75 62 -74 -452 -8 c-249 -4 -452 -8 -452 -8 0 -1 1 -132 3 -291 l3 -289 704 6 c388 4 705 3 705 -1 0 -5 -11 -18 -24 -31 -26 -25 -58 -26 -946 -36 l-445 -4 -32 27 -31 27 -6 375 c-3 206 -9 517 -12 690 l-6 315 34 23 c29 20 45 22 145 22 l112 0 71 -82z m-88 -905 c27 -25 22 -43 -12 -43 -28 0 -45 20 -17 20 6 0 4 5 -6 11 -26 15 -67 3 -67 -21 0 -14 18 -28 65 -50 58 -28 65 -34 65 -60 0 -36 -32 -60 -81 -60 -39 0 -89 31 -89 56 0 21 38 17 50 -7 9 -15 19 -19 43 -17 26 2 32 7 32 27 0 21 -9 27 -65 47 -77 26 -89 47 -51 85 14 15 33 29 41 32 23 9 72 -1 92 -20z m201 -4 c24 -30 21 -49 -7 -49 -24 0 -47 30 -23 30 7 0 4 5 -6 11 -10 6 -29 8 -42 5 -36 -9 -47 -59 -26 -116 14 -38 21 -45 47 -48 24 -2 33 2 42 23 11 24 31 32 45 19 9 -10 -20 -61 -38 -68 -30 -11 -80 -6 -103 10 -12 8 -27 34 -33 60 -6 24 -15 44 -20 44 -5 0 -9 9 -9 20 0 20 46 68 78 82 27 12 76 0 95 -23z m97 -109 c5 0 10 -12 12 -27 3 -31 38 -43 64 -23 16 14 19 80 4 80 -5 0 -10 14 -10 30 0 17 5 30 11 30 6 0 8 9 4 20 -5 16 -2 20 14 20 19 0 21 -6 21 -52 0 -29 3 -69 6 -89 8 -48 -23 -79 -78 -79 -52 0 -88 35 -88 85 0 19 -4 35 -10 35 -5 0 -10 14 -10 30 0 17 5 30 10 30 6 0 10 9 10 19 0 11 6 21 13 24 9 3 13 -15 15 -65 2 -37 7 -68 12 -68z m310 120 c0 -5 -25 -10 -55 -10 l-55 0 0 -35 0 -35 50 0 c38 0 50 -4 50 -15 0 -11 -12 -15 -48 -15 l-48 0 4 -35 4 -35 54 0 c41 0 54 -4 54 -15 0 -12 -15 -15 -75 -15 l-75 0 0 60 c0 33 -4 60 -10 60 -5 0 -10 14 -10 30 0 17 5 30 11 30 6 0 9 9 6 20 -5 19 0 20 69 20 43 0 74 -4 74 -10z m70 -39 c0 -26 3 -69 6 -95 l7 -46 53 0 c41 0 54 -4 54 -15 0 -12 -15 -15 -75 -15 l-75 0 0 60 c0 33 -4 60 -10 60 -5 0 -10 14 -10 30 0 17 5 30 11 30 6 0 9 9 6 20 -4 15 0 20 14 20 16 0 19 -7 19 -49z m173 -16 c-1 -36 2 -65 8 -65 5 0 9 -20 9 -45 0 -41 -2 -45 -25 -45 -24 0 -25 3 -25 60 0 33 -4 60 -10 60 -5 0 -10 14 -10 30 0 17 5 30 10 30 6 0 10 9 10 20 0 12 7 20 18 20 15 0 17 -9 15 -65z m207 55 c0 -5 -16 -10 -36 -10 l-37 0 8 -100 c6 -97 6 -100 -14 -100 -19 0 -21 6 -21 60 0 47 -3 60 -15 60 -12 0 -14 7 -9 28 4 15 11 29 16 30 19 8 -5 22 -38 22 -19 0 -34 5 -34 10 0 6 37 10 90 10 53 0 90 -4 90 -10z m138 -55 c13 -36 27 -65 31 -65 4 0 14 -18 21 -40 l13 -40 79 0 c63 0 78 -3 78 -15 0 -12 -16 -15 -80 -15 -47 0 -80 4 -80 10 0 6 -9 10 -19 10 -13 0 -21 9 -26 30 -6 28 -10 30 -50 30 -40 0 -44 -2 -50 -30 -5 -23 -12 -30 -31 -30 -13 0 -24 2 -24 4 0 2 11 29 25 60 19 43 21 56 11 56 -12 0 -12 6 -3 30 6 17 17 30 23 30 6 0 14 9 17 20 3 11 13 20 24 20 13 0 24 -17 41 -65z m272 35 c0 -11 7 -20 15 -20 8 0 15 -7 15 -15 0 -8 -7 -15 -16 -15 -14 0 -15 -7 -10 -37 3 -21 6 -46 6 -55 0 -10 7 -18 15 -18 8 0 15 -7 15 -15 0 -18 -41 -20 -58 -3 -7 7 -12 34 -12 60 0 37 -4 48 -16 48 -8 0 -12 5 -9 10 3 6 -3 10 -14 10 -12 0 -21 7 -21 15 0 9 9 15 21 15 12 0 23 8 26 20 3 11 14 20 24 20 12 0 19 -7 19 -20z m-414 -71 c-4 -46 -22 -90 -23 -57 0 7 -3 32 -6 55 -5 39 0 50 26 52 4 1 5 -22 3 -50z m586 34 c8 -10 19 -30 26 -45 l12 -28 -55 0 c-56 0 -69 -12 -43 -38 14 -14 54 -16 63 -2 3 5 12 7 21 3 28 -11 -14 -43 -57 -43 -46 0 -79 36 -79 86 0 19 -5 34 -12 34 -6 0 -1 11 12 25 29 31 89 35 112 8z m178 -10 c27 -35 10 -43 -37 -18 -45 24 -57 12 -46 -46 7 -36 13 -45 32 -47 15 -2 28 3 33 12 9 16 48 23 48 9 0 -21 -47 -53 -77 -53 -46 0 -73 30 -73 79 0 22 -6 42 -12 45 -25 10 32 46 72 46 30 0 43 -6 60 -27z m-1628 -33 c6 0 -1 -9 -15 -20 -26 -21 -53 -27 -42 -11 3 5 1 12 -5 16 -14 9 -13 42 3 48 6 2 20 -4 30 -14 10 -11 23 -19 29 -19z m1723 -90 c0 -8 -10 -16 -22 -18 -22 -3 -32 16 -16 32 12 11 38 2 38 -14z"/>
<path d="M1556 1277 c-9 -33 -8 -34 24 -39 36 -5 38 9 6 39 l-24 23 -6 -23z"/>
<path d="M1986 1274 c-9 -24 -9 -24 34 -24 46 0 51 10 13 28 -35 16 -40 15 -47 -4z"/>
<path d="M2558 1416 c-16 -5 -30 -17 -33 -25 -4 -15 -34 -54 -68 -91 -8 -8 -19 -30 -25 -48 -11 -31 -9 -36 17 -60 42 -39 61 -54 61 -47 0 4 15 -2 33 -12 17 -11 37 -19 42 -18 50 8 59 48 20 85 -14 13 -25 20 -25 15 0 -4 -9 2 -20 15 -18 21 -19 25 -5 40 8 9 15 20 15 24 0 4 11 22 25 40 30 39 31 58 8 78 -14 11 -24 12 -45 4z m36 -28 c-3 -12 -31 -51 -60 -87 l-54 -65 65 -33 c47 -24 65 -39 65 -53 0 -25 -5 -25 -38 -1 -15 10 -46 28 -70 40 -24 12 -45 28 -48 36 -4 8 22 50 62 100 67 85 92 105 78 63z"/>
<path d="M965 741 c-6 -6 -41 -10 -80 -11 -114 -1 -329 -2 -345 -1 -8 0 -67 0 -130 0 -63 -1 -122 -1 -130 0 -8 1 -28 1 -45 0 -99 -3 -107 -12 -109 -120 -3 -137 -26 -130 448 -128 92 0 171 -2 173 -5 3 -3 14 -1 24 4 12 7 20 7 24 0 4 -6 11 -8 16 -4 6 3 83 5 172 5 89 -1 176 -1 192 0 39 2 194 2 270 0 33 0 165 -1 293 -1 129 0 238 -3 243 -6 5 -3 9 -2 9 3 0 9 170 8 206 -1 13 -4 24 -2 24 3 0 10 25 9 36 -2 12 -12 26 -8 18 5 -5 7 -3 8 7 2 18 -10 47 -11 77 -2 13 5 21 4 18 0 -3 -5 20 -5 51 -1 31 4 64 4 73 -1 10 -5 20 -7 22 -4 10 9 208 10 208 1 0 -4 4 -6 9 -3 5 3 26 8 46 11 36 4 63 26 66 53 0 6 1 26 1 42 0 135 -6 142 -109 147 -42 2 -79 5 -81 8 -3 2 -13 0 -23 -6 -11 -5 -19 -6 -19 -1 0 5 -12 7 -27 5 -21 -3 -734 -5 -1098 -3 -11 0 -132 0 -270 0 -137 0 -252 0 -255 0 -3 0 2 5 10 10 8 5 10 10 5 10 -6 0 -15 -4 -20 -9z m1855 -136 l0 -85 -1330 0 -1330 0 0 85 0 85 1330 0 1330 0 0 -85z"/>
</g>
</svg>